nColumns=19
nRows=80
DataType=double
version=3
OpenSimVersion=4.1
endheader
time	ground_force_1_vx	ground_force_1_vy	ground_force_1_vz	ground_force_1_px	ground_force_1_py	ground_force_1_pz	ground_force_1_mx	ground_force_1_my	ground_force_1_mz	ground_force_2_vx	ground_force_2_vy	ground_force_2_vz	ground_force_2_px	ground_force_2_py	ground_force_2_pz	ground_force_2_mx	ground_force_2_my	ground_force_2_mz
0.17	0	0	0	-0.000266212	0	-0.000504127	0	0	0	0	0	0	-0.000266212	0	-0.000504127	0	0	0
0.18	0	0	0	-0.000266212	0	-0.000504127	0	0	0	0	0	0	-0.000266212	0	-0.000504127	0	0	0
0.19	0	0	0	-0.000266212	0	-0.000504127	0	0	0	0	0	0	-0.000266212	0	-0.000504127	0	0	0
0.2	0	0	0	-0.000266212	0	-0.000504127	0	0	0	0	0	0	-0.000266212	0	-0.000504127	0	0	0
0.21	0	0	0	-0.000266212	0	-0.000504127	0	0	0	0	0	0	-0.000266212	0	-0.000504127	0	0	0
0.22	0	0	0	-0.000266212	0	-0.000504127	0	0	0	0	0	0	-0.000266212	0	-0.000504127	0	0	0
0.23	0	0	0	-0.000266212	0	-0.000504127	0	0	0	0	0	0	-0.000266212	0	-0.000504127	0	0	0
0.24	0	0	0	-0.000266212	0	-0.000504127	0	0	0	0	0	0	-0.000266212	0	-0.000504127	0	0	0
0.25	0	0	0	-0.000266212	0	-0.000504127	0	0	0	-3.39739	33.9179	-1.04521	1.15612	0	-0.316046	0	-2.03122	0
0.26	0	0	0	-0.000266212	0	-0.000504127	0	0	0	-9.0849	130.929	-1.12703	1.14361	0	-0.323782	0	-4.57148	0
0.27	0	0	0	-0.000266212	0	-0.000504127	0	0	0	-20.4043	399.365	1.48373	1.14672	0	-0.321343	0	-5.81942	0
0.28	0	0	0	-0.000266212	0	-0.000504127	0	0	0	-53.6611	858.537	5.54948	1.14211	0	-0.316136	0	-5.40763	0
0.29	0	0	0	-0.000266212	0	-0.000504127	0	0	0	-118.432	1289.87	1.20362	1.13428	0	-0.311384	0	-3.4442	0
0.3	0	0	0	-0.000266212	0	-0.000504127	0	0	0	-183.77	1480.84	-21.569	1.12179	0	-0.311576	0	-0.586609	0
0.31	0	0	0	-0.000266212	0	-0.000504127	0	0	0	-225.76	1540.52	-50.2818	1.10054	0	-0.316861	-0	2.15723	-0
0.32	0	0	0	-0.000266212	0	-0.000504127	0	0	0	-230.288	1643.62	-57.9223	1.07101	0	-0.319941	-0	3.95736	-0
0.33	0	0	0	-0.000266212	0	-0.000504127	0	0	0	-185.645	1794.64	-43.762	1.03659	0	-0.319229	-0	4.65578	-0
0.34	0	0	0	-0.000266212	0	-0.000504127	0	0	0	-113.677	1900.89	-34.405	1.00358	0	-0.319658	-0	4.74501	-0
0.35	0	0	0	-0.000266212	0	-0.000504127	0	0	0	-54.708	1909.19	-42.9627	0.97542	0	-0.321752	-0	4.86681	-0
0.36	0	0	0	-0.000266212	0	-0.000504127	0	0	0	-10.8173	1842.86	-58.2262	0.948719	0	-0.323015	-0	5.34843	-0
0.37	0	0	0	-0.000266212	0	-0.000504127	0	0	0	35.4687	1731.4	-68.767	0.920297	0	-0.32297	-0	6.11192	-0
0.38	0	0	0	-0.000266212	0	-0.000504127	0	0	0	74.4863	1572.6	-74.4333	0.892473	0	-0.322859	-0	6.84404	-0
0.39	0	0	0	-0.000266212	0	-0.000504127	0	0	0	98.9453	1366.11	-77.5811	0.866546	0	-0.323246	-0	7.19486	-0
0.4	0	0	0	-0.000266212	0	-0.000504127	0	0	0	114.579	1128.15	-76.2866	0.840944	0	-0.323664	-0	6.91813	-0
0.41	0	0	0	-0.000266212	0	-0.000504127	0	0	0	118.388	874.33	-68.2421	0.814182	0	-0.323467	-0	5.95674	-0
0.42	0	0	0	-0.000266212	0	-0.000504127	0	0	0	112.506	616.902	-55.8997	0.780285	0	-0.323376	-0	4.45781	-0
0.43	0	0	0	-0.000266212	0	-0.000504127	0	0	0	103.858	381.619	-43.0595	0.731143	0	-0.32546	-0	2.70665	-0
0.44	0	0	0	-0.000266212	0	-0.000504127	0	0	0	83.7044	202.105	-30.0603	0.676194	0	-0.329347	-0	1.02731	-0
0.45	0	0	0	-0.000266212	0	-0.000504127	0	0	0	49.3143	89.3848	-17.1631	0.649167	0	-0.329787	0	-0.297109	0
0.46	0	0	0	-0.000266212	0	-0.000504127	0	0	0	19.3905	33.2975	-7.51473	0.710418	0	-0.315236	0	-1.09095	0
0.47	0	0	0	-0.000266212	0	-0.000504127	0	0	0	5.14467	11.4906	-2.73167	0.824868	0	-0.279063	0	-1.34779	0
0.48	0	0	0	-0.000266212	0	-0.000504127	0	0	0	0	0	0	-0.000266212	0	-0.000504127	0	0	0
0.49	0	0	0	-0.000266212	0	-0.000504127	0	0	0	0	0	0	-0.000266212	0	-0.000504127	0	0	0
0.5	0	0	0	-0.000266212	0	-0.000504127	0	0	0	0	0	0	-0.000266212	0	-0.000504127	0	0	0
0.51	0	0	0	-0.000266212	0	-0.000504127	0	0	0	0	0	0	-0.000266212	0	-0.000504127	0	0	0
0.52	0	0	0	-0.000266212	0	-0.000504127	0	0	0	0	0	0	-0.000266212	0	-0.000504127	0	0	0
0.53	0	0	0	-0.000266212	0	-0.000504127	0	0	0	0	0	0	-0.000266212	0	-0.000504127	0	0	0
0.54	0	0	0	-0.000266212	0	-0.000504127	0	0	0	0	0	0	-0.000266212	0	-0.000504127	0	0	0
0.55	-4.51774	10.741	-3.5307	1.09204	0	-0.229498	0	-0.42537	0	0	0	0	-0.000266212	0	-0.000504127	0	0	0
0.56	-19.2977	34.2348	-9.08719	1.17159	0	-0.287567	-0	1.17319	-0	0	0	0	-0.000266212	0	-0.000504127	0	0	0
0.57	-64.3471	120.416	-17.7997	1.21542	0	-0.301187	-0	2.84727	-0	0	0	0	-0.000266212	0	-0.000504127	0	0	0
0.58	-139.954	304.192	-25.8274	1.21755	0	-0.304755	-0	3.85515	-0	0	0	0	-0.000266212	0	-0.000504127	0	0	0
0.59	-173.719	556.318	-26.1262	1.19121	0	-0.309301	-0	3.54264	-0	0	0	0	-0.000266212	0	-0.000504127	0	0	0
0.6	-136.221	843.152	-13.3194	1.13545	0	-0.315713	-0	1.71893	-0	0	0	0	-0.000266212	0	-0.000504127	0	0	0
0.61	-121.941	1126.71	12.1691	1.0852	0	-0.32094	0	-1.1479	0	0	0	0	-0.000266212	0	-0.000504127	0	0	0
0.62	-154.205	1344.03	41.2186	1.05274	0	-0.323954	0	-4.07667	0	0	0	0	-0.000266212	0	-0.000504127	0	0	0
0.63	-164.616	1506.5	59.8445	1.02179	0	-0.326216	0	-6.02921	0	0	0	0	-0.000266212	0	-0.000504127	0	0	0
0.64	-122.927	1650.54	63.6097	0.983798	0	-0.327278	0	-6.42282	0	0	0	0	-0.000266212	0	-0.000504127	0	0	0
0.65	-62.1459	1756.69	59.7955	0.945061	0	-0.326739	0	-5.36859	0	0	0	0	-0.000266212	0	-0.000504127	0	0	0
0.66	-6.46	1798.18	54.9834	0.909813	0	-0.325967	0	-3.5163	0	0	0	0	-0.000266212	0	-0.000504127	0	0	0
0.67	48.4751	1776.38	52.042	0.876299	0	-0.32569	0	-1.67205	0	0	0	0	-0.000266212	0	-0.000504127	0	0	0
0.68	102.699	1697.29	52.562	0.84315	0	-0.325553	0	-0.431012	0	0	0	0	-0.000266212	0	-0.000504127	0	0	0
0.69	150.518	1558.83	55.0275	0.810003	0	-0.325658	-0	0.014892	-0	0	0	0	-0.000266212	0	-0.000504127	0	0	0
0.7	193.507	1356.99	56.2159	0.774224	0	-0.326332	0	-0.152442	0	0	0	0	-0.000266212	0	-0.000504127	0	0	0
0.71	232.08	1099.78	54.717	0.731768	0	-0.327376	0	-0.558682	0	0	0	0	-0.000266212	0	-0.000504127	0	0	0
0.72	247.68	820.027	50.9526	0.684654	0	-0.328365	0	-0.841758	0	0	0	0	-0.000266212	0	-0.000504127	0	0	0
0.73	224.869	564.576	45.881	0.643979	0	-0.328758	0	-0.784866	0	0	0	0	-0.000266212	0	-0.000504127	0	0	0
0.74	178.335	359.502	39.8989	0.618411	0	-0.327943	0	-0.352262	0	0	0	0	-0.000266212	0	-0.000504127	0	0	0
0.75	124.768	206.969	32.3293	0.606542	0	-0.325676	-0	0.34808	-0	0	0	0	-0.000266212	0	-0.000504127	0	0	0
0.76	71.1814	102.702	22.865	0.605063	0	-0.32146	-0	1.13701	-0	0	0	0	-0.000266212	0	-0.000504127	0	0	0
0.77	28.1361	41.8366	13.0852	0.63238	0	-0.311498	-0	1.84331	-0	0	0	0	-0.000266212	0	-0.000504127	0	0	0
0.78	5.75845	13.8868	5.76109	0.732	0	-0.283551	-0	2.36537	-0	0	0	0	-0.000266212	0	-0.000504127	0	0	0
0.79	0	0	0	-0.000266212	0	-0.000504127	0	0	0	0	0	0	-0.000266212	0	-0.000504127	0	0	0
0.8	0	0	0	-0.000266212	0	-0.000504127	0	0	0	0	0	0	-0.000266212	0	-0.000504127	0	0	0
0.81	0	0	0	-0.000266212	0	-0.000504127	0	0	0	0	0	0	-0.000266212	0	-0.000504127	0	0	0
0.82	0	0	0	-0.000266212	0	-0.000504127	0	0	0	0	0	0	-0.000266212	0	-0.000504127	0	0	0
0.83	0	0	0	-0.000266212	0	-0.000504127	0	0	0	0	0	0	-0.000266212	0	-0.000504127	0	0	0
0.84	0	0	0	-0.000266212	0	-0.000504127	0	0	0	-4.00741	11.3757	0.121044	1.11701	0	-0.307954	0	-0.775793	0
0.85	0	0	0	-0.000266212	0	-0.000504127	0	0	0	-17.5495	44.8211	0.959422	1.12642	0	-0.364874	0	-3.55483	0
0.86	0	0	0	-0.000266212	0	-0.000504127	0	0	0	-51.6205	167.885	6.22104	1.1341	0	-0.371129	0	-6.72262	0
0.87	0	0	0	-0.000266212	0	-0.000504127	0	0	0	-97.727	460.748	19.6365	1.13558	0	-0.365082	0	-9.47113	0
0.88	0	0	0	-0.000266212	0	-0.000504127	0	0	0	-126.267	877.712	35.3708	1.12912	0	-0.356108	0	-10.9178	0
0.89	0	0	0	-0.000266212	0	-0.000504127	0	0	0	-138.92	1193.61	32.6274	1.11449	0	-0.350607	0	-10.6247	0
0.9	0	0	0	-0.000266212	0	-0.000504127	0	0	0	-165.517	1313.12	1.26698	1.09413	0	-0.353102	0	-8.99633	0
0.91	0	0	0	-0.000266212	0	-0.000504127	0	0	0	-197.656	1378.11	-30.3699	1.06887	0	-0.359448	0	-7.0946	0
0.92	0	0	0	-0.000266212	0	-0.000504127	0	0	0	-196.877	1510.03	-28.8184	1.03624	0	-0.36024	0	-5.8567	0
0.93	0	0	0	-0.000266212	0	-0.000504127	0	0	0	-148.229	1672.58	-5.22523	0.996893	0	-0.357774	0	-5.40158	0
0.94	0	0	0	-0.000266212	0	-0.000504127	0	0	0	-85.9935	1766.74	5.54086	0.959252	0	-0.358626	0	-5.08853	0
0.95	0	0	0	-0.000266212	0	-0.000504127	0	0	0	-37.7327	1768.7	-4.36046	0.925062	0	-0.361744	0	-4.1505	0
0.96	0	0	0	-0.000266212	0	-0.000504127	0	0	0	13.8548	1722.31	-18.4273	0.889594	0	-0.362372	0	-2.22084	0
